<?xml version="1.0" encoding="UTF-8"?>
<svg id="Layer_1" xmlns="http://www.w3.org/2000/svg" xmlns:xlink="http://www.w3.org/1999/xlink" viewBox="0 0 1497.33 317.12">
  <defs>
    <style>
      .cls-1 {
        fill: #f5a1e8;
      }

      .cls-2 {
        fill: none;
      }

      .cls-3 {
        clip-path: url(#clippath-1);
      }

      .cls-4 {
        clip-path: url(#clippath-3);
      }

      .cls-5 {
        fill: #fff2ff;
        fill-rule: evenodd;
      }

      .cls-6 {
        clip-path: url(#clippath-2);
      }

      .cls-7 {
        clip-path: url(#clippath);
      }
    </style>
    <clipPath id="clippath">
      <rect class="cls-2" x="464.53" y="79.98" width="1032.8" height="157.17"/>
    </clipPath>
    <clipPath id="clippath-1">
      <rect class="cls-2" x="193.57" y="53" width="233.85" height="237"/>
    </clipPath>
    <clipPath id="clippath-2">
      <rect class="cls-2" x="0" y="1" width="314.57" height="228"/>
    </clipPath>
    <clipPath id="clippath-3">
      <rect class="cls-2" x="22.57" y="147" width="168" height="170.12"/>
    </clipPath>
  </defs>
  <g class="cls-7">
    <path class="cls-1" d="M1469.04,237.15h-56.52v-19.23h50.5c6.69,0,10.03-3.4,10.03-10.2v-8.2h-51.67c-9.81,0-16.98-2.45-21.5-7.35-4.5-4.9-6.75-11.26-6.75-19.06v-59.69h24.24v56.85c0,6.69,3.34,10.03,10.04,10.03h44.81v-66.88h25.08v97.31c0,7.91-2.29,14.3-6.86,19.16-4.57,4.84-11.7,7.25-21.4,7.25ZM1346.65,131.81h-40.63c-11.48,0-18.56,4.85-21.23,14.55h61.87c2.23,0,3.99-.67,5.28-2.01,1.27-1.34,1.91-3.18,1.91-5.52,0-4.68-2.4-7.02-7.19-7.02ZM1373.73,200.36h-67.72c-14.93,0-26.58-3.71-34.95-11.13-8.36-7.4-12.54-18.29-12.54-32.67s4.18-25.45,12.54-32.87c8.36-7.4,20.01-11.1,34.95-11.1h41.8c9.81,0,17.31,2.3,22.51,6.92,5.17,4.64,7.76,11.25,7.76,19.83,0,17.5-10.09,26.25-30.27,26.25h-63.2c2.34,10.37,9.47,15.55,21.4,15.55h67.72v19.23ZM1243.48,199.52h-24.25v-119.55h24.25v119.55ZM1200.88,199.52h-24.25v-119.55h24.25v119.55ZM1074.14,180.3h59.86v-14.21h-59.86c-2.12,0-3.77.63-4.95,1.91-1.16,1.29-1.74,3-1.74,5.12s.58,3.84,1.74,5.18c1.18,1.34,2.83,2.01,4.95,2.01ZM1158.25,199.52h-88.45c-9.03,0-15.94-2.28-20.73-6.85-4.79-4.57-7.19-11.09-7.19-19.56s2.39-14.83,7.19-19.4c4.79-4.57,11.7-6.86,20.73-6.86h64.2v-4.01c0-6.8-3.34-10.2-10.03-10.2h-70.9v-19.23h77.25c10.14,0,17.33,2.3,21.57,6.92,4.24,4.64,6.36,11.13,6.36,19.5v59.69ZM941.55,132.48h-56.68v14.71h56.68c2.23,0,3.99-.67,5.28-2.01,1.27-1.34,1.91-3.18,1.91-5.52,0-4.79-2.4-7.19-7.19-7.19ZM884.87,199.52h-24.24v-119.55h24.24v33.44h57.85c9.81,0,17.31,2.3,22.51,6.92,5.17,4.64,7.76,11.25,7.76,19.83,0,14.05-6.69,22.41-20.07,25.08l20.4,34.27h-27.25l-19.73-33.27h-41.47v33.27ZM767.19,181.13h30.93c7.25,0,12.79-2.01,16.62-6.02,3.85-4.01,5.78-10.2,5.78-18.56s-1.93-14.71-5.78-18.73c-3.84-4.01-9.38-6.02-16.62-6.02h-30.93c-7.25,0-12.8,2.01-16.65,6.02-3.84,4.01-5.75,10.25-5.75,18.73s1.91,14.55,5.75,18.56c3.85,4.01,9.41,6.02,16.65,6.02ZM798.13,200.36h-30.93c-14.94,0-26.59-3.71-34.94-11.13-8.36-7.4-12.54-18.29-12.54-32.67s4.18-25.45,12.54-32.87c8.36-7.4,20.01-11.1,34.94-11.1h30.93c14.94,0,26.59,3.7,34.95,11.1,8.36,7.42,12.54,18.38,12.54,32.87s-4.18,25.27-12.54,32.67c-8.36,7.42-20.01,11.13-34.95,11.13ZM629.59,181.13h30.93c7.24,0,12.79-2.01,16.62-6.02,3.86-4.01,5.79-10.2,5.79-18.56s-1.93-14.71-5.79-18.73c-3.83-4.01-9.38-6.02-16.62-6.02h-30.93c-7.25,0-12.8,2.01-16.65,6.02-3.84,4.01-5.75,10.25-5.75,18.73s1.92,14.55,5.75,18.56c3.86,4.01,9.41,6.02,16.65,6.02ZM660.52,200.36h-30.93c-14.94,0-26.59-3.71-34.95-11.13-8.36-7.4-12.54-18.29-12.54-32.67s4.18-25.45,12.54-32.87c8.36-7.4,20.01-11.1,34.95-11.1h30.93c14.93,0,26.58,3.7,34.95,11.1,8.36,7.42,12.54,18.38,12.54,32.87s-4.18,25.27-12.54,32.67c-8.36,7.42-20.01,11.13-34.95,11.13ZM488.81,199.52h-24.25v-86.1h75.07c9.81,0,16.98,2.42,21.5,7.25,4.5,4.86,6.76,11.25,6.76,19.16v59.69h-24.25v-56.85c0-6.69-3.34-10.03-10.03-10.03h-44.81v66.88Z"/>
  </g>
  <path class="cls-5" d="M329.58,248.89c-3.8-.69-9.05-1.54-14.25-2.64-1.62-.34-3.18-1.22-4.64-2.06-6.31-3.65-8.32-9.31-4.43-15.47,3.3-5.25,7.49-10.09,11.91-14.46,7.59-7.54,15.71-14.56,23.53-21.86,21.68-20.2,37.21-44.36,46.79-72.4,1.56-4.56,3.36-9.09,5.52-13.39,4.28-8.52,9.53-9.18,15.93-2.18,6.29,6.88,9.92,15.25,12.01,24.14,8.9,37.93-1.6,69.98-30.35,95.94-13.84,12.51-30.36,20.04-48.82,23.03-3.83.62-7.75.8-13.2,1.34"/>
  <g class="cls-3">
    <path class="cls-5" d="M416.78,103.85c-3.11-5-6.15-10.25-9.58-15.25-3.52-5.12-7.67-9.76-12.93-13.23-7.17-4.74-11.77-3.16-13.51,5.17-1.44,6.87-2.3,13.9-3.03,20.9-3.82,37.39-20.86,67.25-50.74,89.94-14.82,11.25-31.12,19.95-47.56,28.47-9.04,4.68-18.24,9.12-26.13,15.7-1.89,1.58-3.58,3.38-5.05,5.36-3.63,4.98-3.37,10.47.61,15.2,5.12,6.09,12.09,9.21,19.39,11.64,13.91,4.64,28.29,5.62,42.79,4.51,23.27-1.81,44.91-8.86,64.36-21.86,27.32-18.27,44.85-43.22,50.91-75.83.11-.57.3-1.11.45-1.66l.66.14c-.86,4.15-1.54,8.35-2.61,12.45-10.64,40.87-36.06,69.51-73.61,87.7-25.08,12.15-51.75,17.06-79.6,15.55-18.84-1.03-36.99-4.91-53.93-13.47-7.17-3.62-13.85-7.99-18.9-14.4-3.12-3.97-5.4-8.29-4.17-13.61.96-4.14,3.75-6.99,7.06-9.34,6.89-4.86,14.81-7.46,22.76-9.9,16.21-4.98,32.57-9.51,48.66-14.85,18.95-6.27,36.75-14.98,52.52-27.45,22.16-17.52,35.86-39.99,39.76-68.16,1.5-10.91,1.27-21.86.43-32.82-.57-7.87-1-15.75-1.29-23.63-.05-1.38.43-2.86.98-4.17,1.2-2.85,3.85-4.34,6.91-3.04,4.25,1.8,8.61,3.82,12.14,6.69,14.32,11.61,24.37,26.54,32.28,43.02.05.12-.04.32-.03.24"/>
  </g>
  <g class="cls-6">
    <path class="cls-5" d="M182.94,1.15c-5.07,1.31-10.11,2.45-15.05,3.96-2.67.82-5.22,2.01-7.57,3.52-1.34.85-2.83,2.62-2.84,3.98,0,1.05,2.03,2.64,3.44,3.08,4.59,1.46,9.27,2.74,14,3.69,22.32,4.51,44.3,10.13,65.31,19.11,24.95,10.66,47.54,25.1,68.45,42.29,1.96,1.61,3.91,3.23,5.67,5.12l-15.6-10.14c-21.5-13.95-43.88-26.1-68.35-34.12-24.21-7.94-48.95-11.96-74.45-10.51-12.68.72-25.12,2.92-36.93,7.85-22.89,9.55-36.14,27.18-41.71,50.85-5.46,23.23-1.68,45.7,6.74,67.62.29.76.57,1.52.85,2.29l-.68.29c-2.86-6.29-5.89-12.51-8.52-18.91-6.5-15.84-9.73-32.44-11.21-49.45-.37-4.82-1.06-9.62-2.05-14.35-1.27-5.82-4.7-7.63-10.43-5.93-6.17,1.83-11.26,5.57-15.92,9.81C18.13,97.54,7.68,118.02,3.84,141.82c-4.89,30.25,2.14,58.11,17.79,84.08.51.87,1.03,1.72,1.25,2.81-.25-.31-.53-.59-.75-.92C9.92,209.23,2.13,189.05.39,166.82c-2.43-31.06,6.45-58.88,25.16-83.63,13.54-17.9,30.8-31.53,49.91-42.96,19.32-11.55,39.01-22.39,60.41-29.73,14.7-5.04,29.92-7.5,45.27-9.36.58-.06,1.18,0,1.79,0"/>
  </g>
  <path class="cls-5" d="M268.73,212.59c-10.29,2.06-20.52,4.57-30.88,6.06-16.89,2.44-33.88,4.15-50.81,6.27-8.16,1.04-16.32,2.28-24,5.48-12.54,5.25-15.43,14.4-8.13,25.93,5.34,8.44,12.93,14.58,21.21,19.89,16.59,10.66,34.88,16.95,54.13,20.59,18.24,3.45,36.62,4.13,55.06,2.02,30.5-3.5,58.58-13.51,83.46-31.79.65-.48,1.33-.89,2-1.35.13.2.27.38.41.57-4.73,3.45-9.39,7.04-14.23,10.33-23.18,15.81-48.79,25.47-76.51,29.47-40.13,5.79-78.71.58-115.38-17.03-15.05-7.23-28.71-16.5-39.78-29.21-5.23-6.01-9.63-12.52-11.45-20.45-1.9-8.31,1.19-14.82,8.88-18.45,5.24-2.47,10.88-3.55,16.57-3.53,13.17.01,26.34.2,39.49.73,20.22.81,40.45,1.55,60.6-.93,9.81-1.21,19.52-3.27,29.27-4.95l.07.35Z"/>
  <path class="cls-5" d="M288.16,308.25c-8.34,1.79-16.65,3.79-25.04,5.35-19.84,3.66-40.11,4.33-60.15,1.98-40.03-4.61-76.39-18.39-107.52-44.5-14.48-12.13-26.52-26.33-33.78-44.04-3.22-7.84-5.26-15.96-3.76-24.57,1.54-8.82,7.94-14.37,16.89-14.77,7.59-.34,14.9,1.15,22.02,3.45,14.99,4.88,29.86,10.18,44.86,15,10.47,3.36,21.09,6.22,30.91,9.09-4.81-.85-10.41-1.86-16.02-2.85-13.44-2.39-26.87-4.91-40.34-7.09-6.46-1.05-13.02-1.21-19.52.2-10.07,2.18-15.19,9.64-13.66,19.9,1.51,10.12,6.32,18.74,12.41,26.69,13.78,18,31.77,30.7,51.88,40.61,20.49,10.11,42.18,16.29,64.86,19.05,24.94,3.03,49.65,1.88,74.11-4.01.57-.13,1.16-.17,1.73-.26l.14.77Z"/>
  <g class="cls-4">
    <path class="cls-5" d="M189.48,317.12c-8.31-1.19-16.67-2.07-24.9-3.62-31.45-5.86-60.21-18.02-85.65-37.55-21.18-16.26-38.11-36-48.32-60.96-5.37-13.12-8.34-26.73-6.84-41.01.73-6.92,2.46-13.54,6.69-19.25,4.86-6.56,11.42-8.74,19.34-6.46,7.74,2.23,14.18,6.84,20.57,11.48,14.69,10.68,29.29,21.49,43.99,32.16,2.84,2.07,5.96,3.75,8.77,5.95-3.14-1.58-6.29-3.15-9.41-4.74-12.7-6.46-25.3-13.14-38.15-19.28-4.52-2.17-9.55-3.57-14.51-4.48-13.48-2.46-20.23,6.04-22.03,16.57-2,11.68.5,22.81,4.81,33.59,7.29,18.26,18.92,33.5,33.32,46.66,29.32,26.76,64.09,42.09,103,48.62,3.15.54,6.31.97,9.46,1.45l-.13.88Z"/>
  </g>
  <path class="cls-5" d="M101.5,294.1c-7.18-3.96-14.5-7.65-21.49-11.92-25.99-15.87-46.77-36.77-60.57-64.16-9.75-19.33-14.55-39.81-12.94-61.52,1.23-16.56,5.95-32,16.31-45.3,3.31-4.25,7.13-8,12.15-10.26,5.52-2.5,10.39-1.91,14.35,2.66,3.24,3.75,5.98,8.01,8.46,12.32,7.24,12.56,13.85,25.5,21.45,37.83,4.84,7.84,10.98,14.87,16.53,22.26.28.36.54.73.49,1.4-.9-.84-1.84-1.64-2.68-2.53-11.12-11.93-22.14-23.96-33.36-35.79-3.55-3.75-7.35-7.36-11.52-10.36-8.53-6.15-17.11-4.66-23.75,3.57-5.94,7.35-8.94,15.95-10.36,25.12-3.66,23.71,1.95,45.72,13.09,66.48,15.02,27.98,37.41,48.65,64.72,64.32,3.15,1.81,6.39,3.48,9.6,5.21-.16.22-.31.45-.46.68"/>
  <path class="cls-5" d="M80.18,143.26c-.37-3.5-.84-6.99-1.08-10.5-1.35-20.6,2.52-39.92,14.5-57.11,10.99-15.76,26.29-25.55,44.39-31.19,17.95-5.59,36.33-6.61,54.96-4.88,30.46,2.82,58.62,13.08,85.84,26.43,2.58,1.27,5.16,2.54,7.59,4.12l-19.64-7.21c-17.15-6.28-34.5-11.84-52.58-14.79-25.93-4.24-51.66-4.23-76.58,5.35-31.37,12.07-50.07,34.77-55.61,68.05-.6,3.59-.91,7.26-1.09,10.9-.18,3.56-.04,7.14-.04,10.7l-.66.11Z"/>
  <path class="cls-5" d="M334.06,104.88c-2.48-2.82-4.98-5.64-7.46-8.46-28.88-32.91-64.16-56.73-104.39-73.51-6.8-2.85-13.54-5.85-20.21-9-2.45-1.18-4.73-2.66-6.78-4.43-2.59-2.19-2.31-4.85.88-6.22,3.47-1.48,7.23-2.93,10.92-3.08,9.73-.39,19.5-.08,29.26-.03.29,0,.58.17,1.46.43-3.45.33-6.3.44-9.07.92-2.37.41-5.24.65-6.01,3.48-.77,2.83,1.45,4.7,3.43,6.04,7.34,5.02,14.72,10.02,22.3,14.66,22.39,13.7,43.51,29,61.61,48.16,8.62,9.15,16.5,18.97,23.54,29.38.31.46.56.96.84,1.44l-.32.2Z"/>
  <path class="cls-5" d="M366.12,44.85c-1.68-.88-3.31-1.88-5.06-2.61-2.02-.85-4.09-1.67-6.21-2.18-4.64-1.09-7.55,1.02-7.16,5.79.44,5.12,1.63,10.18,2.69,15.23,2.49,11.76,5.96,23.39,7.51,35.27,4.4,33.8-5.19,62.9-31.27,85.74,1.17-1.2,2.36-2.36,3.5-3.59,1.22-1.29,2.46-2.59,3.6-3.95,14.42-17.46,20.25-37.7,19.22-60.11-.89-19.04-6.88-36.73-14.28-54.05-2.92-6.86-5.74-13.76-8.45-20.71-.68-1.71-1-3.61-1.2-5.45-.39-3.81,1.7-6.12,5.52-5.84,2.45.2,4.86.74,7.16,1.59,9.06,3.36,16.79,9.04,24.43,14.86"/>
  <path class="cls-5" d="M345.89,128.13c-6.55-19.88-16.75-37.09-29.39-52.92-12.03-15.08-26.04-28.16-40.99-40.28-7.19-5.83-14.41-11.61-21.52-17.56-2.14-1.8-4.07-3.84-5.77-6.07-2.94-3.88-1.85-6.82,2.93-7.66,2.98-.53,6.14-.82,9.1-.4,6.96.99,13.85,2.45,20.77,3.73.38.07.73.27,1.61.61-3.29,0-6.01-.21-8.69.05-4.3.43-5.74,2.98-3.47,6.7,2.04,3.32,4.42,6.42,7.1,9.25,9.91,10.62,20.32,20.78,29.91,31.68,17.12,19.44,30.58,41.06,37.28,66.41.45,1.72.82,3.46,1.2,5.2.05.24-.02.5-.08,1.27"/>
  <path class="cls-5" d="M346.63,149.17c.17-1.42.36-2.84.5-4.27,2-21.58-3.71-41.51-13.05-60.66-7.86-16.12-18.43-30.46-29.47-44.49-3.74-4.72-7.35-9.55-10.82-14.48-1.48-2.17-2.64-4.54-3.48-7.03-1-2.79.35-5.14,3.28-5.39,2.99-.26,6.21-.31,9.03.51,7.72,2.3,15.31,5.01,22.75,8.12-3.23-.55-6.45-1.39-9.7-1.57-4.48-.25-6.5,2.22-4.87,6.46,2,5.12,4.41,10.07,7.21,14.81,7.99,13.6,16.29,27.02,22.21,41.73,6.34,15.76,10.27,32,9.34,49.11-.31,5.78-1.35,11.51-2.07,17.27-.29-.03-.57-.07-.85-.11"/>
  <path class="cls-5" d="M81.92,126.93c1.46-4.82,2.64-9.75,4.41-14.46,10.88-29.06,32.08-47.04,61.16-56.31,16.2-5.16,32.88-6.64,49.81-5.88,17.72.8,35.01,4.2,52.17,8.43.45.11.88.35,1.88.75-8.23-1.11-15.85-2.21-23.5-3.18-24.86-3.13-49.63-3.79-74.03,3.19-35.01,10.02-59.25,31.57-70.79,66.57l-.38,1.09c-.24-.06-.48-.14-.72-.21"/>
  <path class="cls-5" d="M204.26,55.93c-12.68,1.15-25.18,2.9-37.52,5.74-26.08,6-49.09,17.56-67.49,37.42-1.47,1.59-2.86,3.23-4.29,4.84l-.5-.41c2.51-3.02,4.91-6.13,7.54-9.04,14.92-16.45,33.55-26.76,54.76-32.68,15.15-4.23,30.68-5.66,46.33-6.01.39,0,.77.09,1.16.14"/>
  <path class="cls-5" d="M45.56,58.06l-9.55,9.77,9.88-9.55c-.11-.07-.22-.14-.33-.21"/>
</svg>